<?xml version="1.0" encoding="UTF-8" standalone="no"?>
<svg width="439px" height="116px" viewBox="0 0 439 116" version="1.1" xmlns="http://www.w3.org/2000/svg" xmlns:xlink="http://www.w3.org/1999/xlink" xmlns:sketch="http://www.bohemiancoding.com/sketch/ns">
    <title>govfresh-logo-blue</title>
    <description>Created with Sketch (http://www.bohemiancoding.com/sketch)</description>
    <defs></defs>
    <g id="Page-1" stroke="none" stroke-width="1" fill="none" fill-rule="evenodd" sketch:type="MSPage">
        <g id="gov-+-fresh" sketch:type="MSLayerGroup" fill="#0072BC">
            <path d="M58.6885522,85.6456044 C57.49326,90.8242017 55.9194823,95.3056129 53.9671717,99.0899725 C52.0148612,102.874332 49.5844702,106.021279 46.6759259,108.530907 C43.7673816,111.040535 40.2811651,112.912769 36.2171717,114.147665 C32.1531783,115.382561 27.4119238,116 21.993266,116 C16.9730389,116 12.7497365,115.5419 9.32323232,114.625687 C5.8967281,113.709473 2.78901507,112.574183 0,111.21978 L5.97643098,97.1181319 C8.44670146,98.2335221 11.0165411,99.1895565 13.6860269,99.9862637 C16.3555128,100.782971 19.642517,101.181319 23.547138,101.181319 C28.6470513,101.181319 32.4918501,100.046028 35.0816498,97.7754121 C37.6714495,95.5047963 39.3647547,92.576941 40.1616162,88.9917582 L40.6397306,86.7211538 C39.0460077,87.5178611 37.3527026,88.1552174 35.5597643,88.6332418 C33.7668261,89.1112661 31.8743085,89.3502747 29.8821549,89.3502747 C26.1369061,89.3502747 22.9096656,88.7726706 20.2003367,87.6174451 C17.4910078,86.4622195 15.2797504,84.8489115 13.5664983,82.7774725 C11.8532462,80.7060336 10.578287,78.2561955 9.74158249,75.4278846 C8.90487797,72.5995738 8.48653199,69.5123794 8.48653199,66.1662088 C8.48653199,60.1112335 9.60212128,54.7534574 11.8333333,50.0927198 C14.0645454,45.4319822 17.0328098,41.5480925 20.7382155,38.4409341 C24.4436212,35.3337757 28.706766,32.9835245 33.5277778,31.3901099 C38.3487895,29.7966953 43.3888626,29 48.6481481,29 C52.4730831,29 56.2581182,29.3983477 60.003367,30.1950549 C63.7486158,30.9917622 67.4141235,32.22664 71,33.8997253 L58.6885522,85.6456044 Z M51,44.4750958 C49.6245886,44.1583637 47.9255765,44 45.9029126,44 C42.8284636,44 40.077682,44.5344774 37.6504854,45.6034483 C35.2232888,46.6724191 33.1399763,48.1174877 31.4004854,49.9386973 C29.6609945,51.7599069 28.3260564,53.957203 27.3956311,56.5306513 C26.4652057,59.1040997 26,61.8556686 26,64.7854406 C26,66.2107351 26.121358,67.5370309 26.3640777,68.7643678 C26.6067973,69.9917047 27.0517767,71.0606596 27.6990291,71.9712644 C28.3462816,72.8818692 29.2362403,73.6143012 30.368932,74.1685824 C31.5016238,74.7228636 32.9174672,75 34.6165049,75 C35.7491966,75 37.2661717,74.8020454 39.1674757,74.4061303 C41.0687797,74.0102151 42.7880182,73.099624 44.3252427,71.6743295 L51,44.4750958 Z M93.7619048,95 C89.5555345,95 85.9047774,94.3646273 82.8095238,93.0938628 C79.7142702,91.8230983 77.154772,90.0361126 75.1309524,87.732852 C73.1071327,85.4295914 71.5793702,82.709402 70.547619,79.5722022 C69.5158679,76.4350024 69,72.9603079 69,69.1480144 C69,64.3826477 69.7738018,59.6173523 71.3214286,54.8519856 C72.8690554,50.0866188 75.1507786,45.797853 78.1666667,41.9855596 C81.1825548,38.1732661 84.872994,35.0559688 89.2380952,32.633574 C93.6031964,30.2111792 98.6031464,29 104.238095,29 C108.3651,29 111.996016,29.6353727 115.130952,30.9061372 C118.265889,32.1769017 120.845228,33.9638874 122.869048,36.267148 C124.892867,38.5704086 126.42063,41.290598 127.452381,44.4277978 C128.484132,47.5649976 129,51.0396921 129,54.8519856 C129,59.6173523 128.246039,64.3826477 126.738095,69.1480144 C125.230151,73.9133812 123.007951,78.202147 120.071429,82.0144404 C117.134906,85.8267339 113.464308,88.9440312 109.059524,91.366426 C104.65474,93.7888208 99.5555845,95 93.7619048,95 Z M102.105769,44 C99.4615252,44 97.1378305,44.7549593 95.1346154,46.2649007 C93.1314002,47.774842 91.4487248,49.6821077 90.0865385,51.986755 C88.7243522,54.2914023 87.7027278,56.8145558 87.0216346,59.5562914 C86.3405415,62.298027 86,64.9006499 86,67.3642384 C86,71.4172388 86.6410192,74.5364129 87.9230769,76.7218543 C89.2051346,78.9072957 91.5288293,80 94.8942308,80 C97.5384748,80 99.8621695,79.2450407 101.865385,77.7350993 C103.8686,76.225158 105.551275,74.3178923 106.913462,72.013245 C108.275648,69.7085977 109.297272,67.1854442 109.978365,64.4437086 C110.659459,61.701973 111,59.0993501 111,56.6357616 C111,52.5827612 110.358981,49.4635871 109.076923,47.2781457 C107.794865,45.0927043 105.471171,44 102.105769,44 Z M141.044146,94 C138.981436,86.0151692 137.117091,76.6930191 135.451056,66.03327 C133.78502,55.3735208 132.63468,43.695881 132,31 L150.326296,31 C150.405631,34.114084 150.524631,37.527548 150.683301,41.2404943 C150.841971,44.9534406 151.040306,48.686293 151.278311,52.4391635 C151.516316,56.192034 151.793984,59.8450393 152.111324,63.398289 C152.428664,66.9515387 152.785667,70.1653849 153.182342,73.039924 C154.927712,70.6444747 156.891224,67.6901316 159.072937,64.1768061 C161.254649,60.6634805 163.376829,56.9905135 165.439539,53.1577947 C167.50225,49.3250759 169.406261,45.4724528 171.151631,41.5998099 C172.897002,37.7271669 174.245677,34.1939323 175.197697,31 L194,31 C191.93729,36.6692299 189.378774,42.4980689 186.324376,48.486692 C183.269978,54.4753151 179.997458,60.2642306 176.506718,65.8536122 C173.015977,71.4429937 169.465789,76.6729794 165.856046,81.5437262 C162.246303,86.414473 158.894449,90.5665228 155.800384,94 L141.044146,94 Z" id="gov" opacity="0.454261364" sketch:type="MSShapeGroup"></path>
            <path d="M231.576087,0 C235.163061,0 238.291653,0.37737101 240.961957,1.13212435 C243.63226,1.88687769 245.644921,2.58203482 247,3.21761658 L241.021739,17.1606218 C239.586949,16.4455923 237.93298,15.9093282 236.059783,15.5518135 C234.186585,15.1942987 232.452907,15.015544 230.858696,15.015544 C226.474616,15.015544 223.22646,16.1277954 221.11413,18.3523316 C219.001801,20.5768678 217.547105,23.3574963 216.75,26.6943005 L216.032609,29.7927461 L237.076087,29.7927461 L233.48913,44.3316062 L212.565217,44.3316062 L205.271739,74.7202073 C202.561581,86.0812312 199.612335,94.9196575 196.423913,101.235751 C193.235491,107.551845 189.72828,112.139882 185.902174,115 L170,112.735751 C172.072474,110.829006 173.985498,108.485333 175.73913,105.704663 C177.492762,102.923993 179.067022,99.9844715 180.461957,96.8860104 C181.856891,93.7875493 183.052531,90.6295498 184.048913,87.4119171 C185.045295,84.1942844 185.862316,81.195178 186.5,78.4145078 L198.934783,26.4559585 C200.927546,18.0345002 204.514467,11.5198849 209.695652,6.9119171 C214.876838,2.30394933 222.170243,0 231.576087,0 Z M275.7713,44.566108 C274.186838,44.1688372 272.622205,43.7914357 271.077354,43.433892 C269.532503,43.0763483 267.254873,42.8975791 264.244395,42.8975791 C263.135271,42.8975791 261.907331,42.9968953 260.560538,43.1955307 C259.213745,43.3941661 258.104638,43.6126618 257.233184,43.8510242 L245.706278,92 L228,92 L242.26009,32.6480447 C245.666684,31.5356866 249.489142,30.4829348 253.727578,29.4897579 C257.966015,28.496581 262.739136,28 268.047085,28 C270.027663,28 272.226072,28.1787692 274.642377,28.5363128 C277.058682,28.8938565 279.177868,29.4698905 281,30.264432 L275.7713,44.566108 Z M273,67.7906137 C273,62.7075558 273.906241,57.7834173 275.71875,53.0180505 C277.531259,48.2526838 280.088872,44.0234842 283.391667,40.3303249 C286.694461,36.6371656 290.70206,33.6588561 295.414583,31.3953069 C300.127107,29.1317576 305.343027,28 311.0625,28 C313.881959,28 316.499988,28.3971079 318.916667,29.1913357 C321.333345,29.9855635 323.447908,31.1371766 325.260417,32.6462094 C327.072926,34.1552422 328.482634,36.0017941 329.489583,38.1859206 C330.496533,40.370047 331,42.8519717 331,45.631769 C331,50.0794446 329.993066,53.8519701 327.979167,56.9494585 C325.965268,60.0469469 323.16599,62.5685823 319.58125,64.5144404 C315.99651,66.4602985 311.747247,67.8700317 306.833333,68.7436823 C301.91942,69.6173329 296.562529,70.0541516 290.7625,70.0541516 C291.326392,73.3899084 292.554852,75.7527006 294.447917,77.1425993 C296.340982,78.5324979 299.341646,79.2274368 303.45,79.2274368 C306.027791,79.2274368 308.64582,79.0090275 311.304167,78.5722022 C313.962513,78.1353769 316.459711,77.4801488 318.795833,76.6064982 L320.125,90.5451264 C317.869433,91.4187769 314.989601,92.2129928 311.485417,92.9277978 C307.981232,93.6426029 304.175021,94 300.066667,94 C295.072197,94 290.863212,93.3050611 287.439583,91.9151625 C284.015955,90.5252638 281.236816,88.6390011 279.102083,86.2563177 C276.96735,83.8736343 275.416672,81.0938787 274.45,77.9169675 C273.483328,74.7400563 273,71.3646388 273,67.7906137 Z M307.597938,42 C303.56699,42 300.030084,43.4636445 296.987113,46.3909774 C293.944143,49.3183104 291.948458,53.1879459 291,58 C295.900368,57.8395982 299.852219,57.4185498 302.85567,56.7368421 C305.859122,56.0551344 308.190713,55.2330875 309.850515,54.2706767 C311.510318,53.3082659 312.616836,52.2656698 313.170103,51.1428571 C313.72337,50.0200445 314,48.8972487 314,47.7744361 C314,43.9247928 311.866001,42 307.597938,42 Z M346.935818,79.7039711 C351.018654,79.7039711 353.820558,79.1281646 355.341615,77.9765343 C356.862672,76.824904 357.623188,75.574014 357.623188,74.2238267 C357.623188,73.3501761 357.483093,72.595671 357.202899,71.9602888 C356.922704,71.3249066 356.462391,70.7292447 355.821946,70.1732852 C355.181501,69.6173257 354.300903,69.0415192 353.180124,68.4458484 C352.059346,67.8501775 350.618366,67.1552386 348.857143,66.3610108 C346.855753,65.4873603 344.974474,64.5541566 343.213251,63.5613718 C341.452027,62.5685871 339.91098,61.3772633 338.590062,59.9873646 C337.269145,58.597466 336.228437,57.0090342 335.467909,55.2220217 C334.707381,53.4350091 334.327122,51.3104816 334.327122,48.8483755 C334.327122,42.4151303 336.708741,37.3321486 341.47205,33.599278 C346.235359,29.8664073 353.180079,28 362.306418,28 C366.629421,28 370.472033,28.4765295 373.834369,29.4296029 C377.196704,30.3826762 379.918554,31.4151569 382,32.5270758 L375.875776,45.7509025 C374.194609,44.8772519 372.03314,44.0433253 369.391304,43.2490975 C366.749469,42.4548697 364.147701,42.0577617 361.585921,42.0577617 C360.465143,42.0577617 359.364395,42.1173279 358.283644,42.2364621 C357.202893,42.3555963 356.202213,42.6137164 355.281573,43.0108303 C354.360934,43.4079442 353.620431,43.9638953 353.060041,44.6787004 C352.499652,45.3935054 352.219462,46.3465644 352.219462,47.5379061 C352.219462,49.1263617 352.839883,50.3176856 354.080745,51.1119134 C355.321607,51.9061412 357.062791,52.8592002 359.304348,53.9711191 C362.426517,55.4801519 365.028285,56.8700297 367.109731,58.1407942 C369.191177,59.4115587 370.852306,60.7617257 372.093168,62.1913357 C373.33403,63.6209458 374.234642,65.2490883 374.795031,67.0758123 C375.35542,68.9025362 375.635611,71.0469191 375.635611,73.5090253 C375.635611,76.0505542 375.095243,78.5523343 374.014493,81.0144404 C372.933742,83.4765466 371.232586,85.6606403 368.910973,87.566787 C366.58936,89.4729337 363.627347,91.0216547 360.024845,92.2129964 C356.422342,93.4043381 352.099404,94 347.055901,94 C343.933732,94 341.111814,93.801446 338.590062,93.4043321 C336.06831,93.0072182 333.8468,92.5108333 331.925466,91.9151625 C330.004131,91.3194916 328.383029,90.7039743 327.062112,90.0685921 C325.741194,89.4332098 324.7205,88.9169695 324,88.5198556 L330.124224,74.9386282 C331.485169,75.732856 333.606611,76.7256258 336.488613,77.9169675 C339.370615,79.1083092 342.852982,79.7039711 346.935818,79.7039711 Z M419.326923,28.5721649 C422.744889,28.5721649 425.685885,29.0661463 428.15,30.0541237 C430.614115,31.0421012 432.641018,32.4252488 434.230769,34.2036082 C435.820521,35.9819677 437.012817,38.0962077 437.807692,40.5463918 C438.602568,42.9965758 439,45.6443157 439,48.4896907 C439,51.8092949 438.602568,55.0893309 437.807692,58.3298969 L429.7,92 L411.934615,92 L419.803846,59.0412371 C420.121796,57.6975878 420.41987,56.2749216 420.698077,54.7731959 C420.976283,53.2714702 421.115385,51.848804 421.115385,50.5051546 C421.115385,48.4501615 420.578852,46.6915881 419.505769,45.2293814 C418.432687,43.7671748 416.385913,43.0360825 413.365385,43.0360825 C412.093583,43.0360825 410.881416,43.1151195 409.728846,43.2731959 C408.576276,43.4312723 407.443595,43.6288648 406.330769,43.8659794 L394.765385,92 L377,92 L398.461538,2.84536082 L416.942308,0 L409.669231,29.757732 C411.258982,29.4415792 412.868582,29.1649496 414.498077,28.9278351 C416.127572,28.6907205 417.737172,28.5721649 419.326923,28.5721649 Z" id="fresh" sketch:type="MSShapeGroup"></path>
        </g>
    </g>
</svg>