<?xml version="1.0" encoding="UTF-8" standalone="no"?>
<svg width="1502px" height="387px" viewBox="0 0 1502 387" version="1.1" xmlns="http://www.w3.org/2000/svg" xmlns:xlink="http://www.w3.org/1999/xlink" xmlns:sketch="http://www.bohemiancoding.com/sketch/ns">
    <title>civicmakers</title>
    <description>Created with Sketch (http://www.bohemiancoding.com/sketch)</description>
    <defs></defs>
    <g id="Page-1" stroke="none" stroke-width="1" fill="none" fill-rule="evenodd" sketch:type="MSPage">
        <g id="Group-+-path3-+-path3" sketch:type="MSLayerGroup">
            <g id="Group" fill="#F6A623" sketch:type="MSShapeGroup">
                <path d="M339.555198,349 L44.4448023,349 C35.3994536,349 28,343.15106 28,336.002355 C28,328.84894 35.3994536,323 44.4448023,323 L339.555198,323 C348.600546,323 356,328.84894 356,336.002355 C356,343.15106 348.600546,349 339.555198,349 Z" id="Shape"></path>
                <path d="M389,374 C389,381.15 381.603541,387 372.561853,387 L16.4381468,387 C7.40117308,387 0,381.15 0,374 C0,366.85 7.39645895,361 16.4381468,361 L372.561853,361 C381.603541,361 389,366.85 389,374 L389,374 Z" id="Shape"></path>
                <path d="M367,116.33705 C367,124.952392 360.057745,132 351.576962,132 L34.4183189,132 C25.9375356,132 19,124.952392 19,116.33705 L19,104.66295 C19,96.0476084 25.9375356,89 34.4183189,89 L351.576962,89 C360.057745,89 367,96.0476084 367,104.66295 L367,116.33705 L367,116.33705 Z" id="Shape"></path>
                <path d="M87.2540807,76 C78.7706374,76 77.5479264,72.0764165 84.5395677,67.2767388 L177.295657,3.59975829 C184.282577,-1.19991943 195.721299,-1.19991943 202.70822,3.59975829 L295.464309,67.2767388 C302.451229,72.0764165 301.228518,76 292.745075,76 L87.2540807,76 L87.2540807,76 Z" id="Shape"></path>
            </g>
            <g id="path3-+-path3" transform="translate(36.000000, 147.000000)" fill="#4990E2" sketch:type="MSShapeGroup">
                <path d="M161,81.085403 C161,79.0325679 160.98725,76.8943299 160.824681,74.8731256 L138.74408,67.971298 C137.593352,62.6320291 135.817851,57.4983599 133.353825,52.7885426 L145.524135,33.4684864 C143.142987,30.1757263 140.538707,27.044283 137.698543,24.1532334 L116.48816,32.7789363 C112.175319,29.4418932 107.540528,26.5951265 102.405282,24.4980084 L99.2750455,2.24261949 C95.3638434,1.25574039 91.3888889,0.408036551 87.2800546,0 L76.5027322,20.0096064 C70.8606557,20.2341846 65.4640255,21.3033037 60.3319672,22.941776 L43.4663024,7.75902062 C39.7814208,9.51452671 36.147541,11.5294049 32.8611111,13.797329 L37.5564663,36.0527179 C33.5560109,39.6997423 30.1962659,43.8844892 27.298725,48.4741097 L4.17577413,47.6169166 C2.51183971,51.2734302 1.10928962,55.0786082 0.00318761384,59.0039831 L18.2586521,73.1524133 C17.920765,75.6512418 17.7358834,78.1627226 17.7358834,80.7406279 C17.7358834,83.5431115 18.102459,86.1558107 18.4307832,88.8475867 L0,103.166823 C1.04553734,107.092198 2.45765027,110.704428 4.17258652,114.383083 L27.4708561,113.522727 C30.352459,117.900422 33.753643,121.930178 37.5564663,125.425375 L32.68898,148.373477 C36.048725,150.641401 39.4084699,152.672095 43.1188525,154.408622 L60.6794171,138.710286 C65.7094718,140.177952 70.8606557,141.047798 76.1520947,141.29768 L87.2800546,162 C91.379326,161.604616 95.3638434,160.877109 99.2750455,159.93135 L102.405282,136.812441 C107.256831,134.810216 111.837432,132.105787 115.965392,129.047095 L137.698543,137.843604 C140.538707,134.971532 143.146175,131.8306 145.524135,128.528351 L133.178506,108.860356 C135.617031,104.261246 137.382969,99.4375586 138.568761,94.1963449 L160.821494,87.1237113 C160.974499,85.1056701 161,83.1382381 161,81.085403 L161,81.085403 L161,81.085403 Z M108,81.0016014 C108,97.0253465 95.0221437,110 79.0016014,110 C62.9778563,110 50,97.0253465 50,81.0016014 C50,64.9778563 62.9778563,52 79.0016014,52 C95.0253465,52 108,64.9778563 108,81.0016014 L108,81.0016014 L108,81.0016014 Z" id="path3"></path>
                <path d="M318,81.085403 C318,79.0325679 317.98725,76.8943299 317.824681,74.8731256 L295.74408,67.971298 C294.593352,62.6320291 292.817851,57.4983599 290.353825,52.7885426 L302.524135,33.4684864 C300.142987,30.1757263 297.538707,27.044283 294.698543,24.1532334 L273.48816,32.7789363 C269.175319,29.4418932 264.540528,26.5951265 259.405282,24.4980084 L256.275046,2.24261949 C252.363843,1.25574039 248.388889,0.408036551 244.280055,0 L233.502732,20.0096064 C227.860656,20.2341846 222.464026,21.3033037 217.331967,22.941776 L200.466302,7.75902062 C196.781421,9.51452671 193.147541,11.5294049 189.861111,13.797329 L194.556466,36.0527179 C190.556011,39.6997423 187.196266,43.8844892 184.298725,48.4741097 L161.175774,47.6169166 C159.51184,51.2734302 158.10929,55.0786082 157.003188,59.0039831 L175.258652,73.1524133 C174.920765,75.6512418 174.735883,78.1627226 174.735883,80.7406279 C174.735883,83.5431115 175.102459,86.1558107 175.430783,88.8475867 L157,103.166823 C158.045537,107.092198 159.45765,110.704428 161.172587,114.383083 L184.470856,113.522727 C187.352459,117.900422 190.753643,121.930178 194.556466,125.425375 L189.68898,148.373477 C193.048725,150.641401 196.40847,152.672095 200.118852,154.408622 L217.679417,138.710286 C222.709472,140.177952 227.860656,141.047798 233.152095,141.29768 L244.280055,162 C248.379326,161.604616 252.363843,160.877109 256.275046,159.93135 L259.405282,136.812441 C264.256831,134.810216 268.837432,132.105787 272.965392,129.047095 L294.698543,137.843604 C297.538707,134.971532 300.146175,131.8306 302.524135,128.528351 L290.178506,108.860356 C292.617031,104.261246 294.382969,99.4375586 295.568761,94.1963449 L317.821494,87.1237113 C317.974499,85.1056701 318,83.1382381 318,81.085403 L318,81.085403 L318,81.085403 Z M265,81.0016014 C265,97.0253465 252.022144,110 236.001601,110 C219.977856,110 207,97.0253465 207,81.0016014 C207,64.9778563 219.977856,52 236.001601,52 C252.025347,52 265,64.9778563 265,81.0016014 L265,81.0016014 L265,81.0016014 Z" id="path3"></path>
            </g>
        </g>
        <path d="M901.378906,279 L871.59375,279 L871.59375,215.230469 C871.59375,207.352825 870.275404,201.444681 867.638672,197.505859 C865.00194,193.567038 860.851591,191.597656 855.1875,191.597656 C847.570274,191.597656 842.036476,194.397107 838.585938,199.996094 C835.135399,205.59508 833.410156,214.807228 833.410156,227.632812 L833.410156,279 L803.625,279 L803.625,169.820312 L826.378906,169.820312 L830.382812,183.785156 L832.042969,183.785156 C834.972671,178.77211 839.204399,174.849624 844.738281,172.017578 C850.272163,169.185533 856.619756,167.769531 863.78125,167.769531 C880.122478,167.769531 891.190075,173.10802 896.984375,183.785156 L899.621094,183.785156 C902.550796,178.707006 906.863904,174.768243 912.560547,171.96875 C918.25719,169.169257 924.686162,167.769531 931.847656,167.769531 C944.21751,167.769531 953.57614,170.943328 959.923828,177.291016 C966.271516,183.638704 969.445312,193.811128 969.445312,207.808594 L969.445312,279 L939.5625,279 L939.5625,215.230469 C939.5625,207.352825 938.244154,201.444681 935.607422,197.505859 C932.97069,193.567038 928.820341,191.597656 923.15625,191.597656 C915.864547,191.597656 910.412127,194.201797 906.798828,199.410156 C903.185529,204.618516 901.378906,212.886662 901.378906,224.214844 L901.378906,279 Z M1064.34766,279 L1058.58594,264.15625 L1057.80469,264.15625 C1052.79164,270.471386 1047.63219,274.849597 1042.32617,277.291016 C1037.02016,279.732434 1030.10291,280.953125 1021.57422,280.953125 C1011.0924,280.953125 1002.84052,277.958363 996.818359,271.96875 C990.796194,265.979137 987.785156,257.450576 987.785156,246.382812 C987.785156,234.794213 991.83785,226.249376 999.943359,220.748047 C1008.04887,215.246717 1020.27205,212.203128 1036.61328,211.617188 L1055.55859,211.03125 L1055.55859,206.246094 C1055.55859,195.17833 1049.89459,189.644531 1038.56641,189.644531 C1029.8424,189.644531 1019.5886,192.281224 1007.80469,197.554688 L997.941406,177.4375 C1010.50657,170.861946 1024.43873,167.574219 1039.73828,167.574219 C1054.38679,167.574219 1065.61715,170.764291 1073.42969,177.144531 C1081.24223,183.524771 1085.14844,193.225195 1085.14844,206.246094 L1085.14844,279 L1064.34766,279 Z M1055.55859,228.414062 L1044.03516,228.804688 C1035.37626,229.065105 1028.93101,230.62759 1024.69922,233.492188 C1020.46743,236.356785 1018.35156,240.718721 1018.35156,246.578125 C1018.35156,254.976604 1023.16922,259.175781 1032.80469,259.175781 C1039.70576,259.175781 1045.22329,257.190124 1049.35742,253.21875 C1053.49156,249.247376 1055.55859,243.973991 1055.55859,237.398438 L1055.55859,228.414062 Z M1139.42578,219.625 L1152.41406,203.023438 L1182.98047,169.820312 L1216.57422,169.820312 L1173.21484,217.183594 L1219.21094,279 L1184.83594,279 L1153.39062,234.761719 L1140.59766,245.015625 L1140.59766,279 L1110.8125,279 L1110.8125,127.046875 L1140.59766,127.046875 L1140.59766,194.820312 L1139.03516,219.625 L1139.42578,219.625 Z M1275.24609,280.953125 C1257.66788,280.953125 1243.93104,276.102913 1234.03516,266.402344 C1224.13927,256.701774 1219.19141,242.964933 1219.19141,225.191406 C1219.19141,206.897044 1223.76493,192.753305 1232.91211,182.759766 C1242.05929,172.766226 1254.70565,167.769531 1270.85156,167.769531 C1286.28133,167.769531 1298.29293,172.164019 1306.88672,180.953125 C1315.48051,189.742231 1319.77734,201.884037 1319.77734,217.378906 L1319.77734,231.832031 L1249.36719,231.832031 C1249.69271,240.295615 1252.1992,246.903622 1256.88672,251.65625 C1261.57424,256.408878 1268.1497,258.785156 1276.61328,258.785156 C1283.18883,258.785156 1289.40622,258.101569 1295.26562,256.734375 C1301.12503,255.367181 1307.24476,253.186213 1313.625,250.191406 L1313.625,273.238281 C1308.41664,275.842461 1302.85029,277.779291 1296.92578,279.048828 C1291.00127,280.318366 1283.77478,280.953125 1275.24609,280.953125 Z M1271.04688,188.960938 C1264.73174,188.960938 1259.78387,190.962871 1256.20312,194.966797 C1252.62238,198.970723 1250.57162,204.651005 1250.05078,212.007812 L1291.84766,212.007812 C1291.71745,204.651005 1289.79689,198.970723 1286.08594,194.966797 C1282.37498,190.962871 1277.36201,188.960938 1271.04688,188.960938 Z M1399.93359,167.769531 C1403.97007,167.769531 1407.3229,168.062497 1409.99219,168.648438 L1407.74609,196.578125 C1405.33723,195.92708 1402.40757,195.601562 1398.95703,195.601562 C1389.45178,195.601562 1382.04625,198.042944 1376.74023,202.925781 C1371.43422,207.808618 1368.78125,214.644487 1368.78125,223.433594 L1368.78125,279 L1338.99609,279 L1338.99609,169.820312 L1361.55469,169.820312 L1365.94922,188.179688 L1367.41406,188.179688 C1370.7995,182.059865 1375.37302,177.128274 1381.13477,173.384766 C1386.89651,169.641257 1393.16273,167.769531 1399.93359,167.769531 Z M1500.98828,246.578125 C1500.98828,257.776098 1497.09835,266.304658 1489.31836,272.164062 C1481.53837,278.023467 1469.90112,280.953125 1454.40625,280.953125 C1446.4635,280.953125 1439.69274,280.416021 1434.09375,279.341797 C1428.49476,278.267573 1423.25393,276.688813 1418.37109,274.605469 L1418.37109,249.996094 C1423.90498,252.600273 1430.13864,254.781241 1437.07227,256.539062 C1444.00589,258.296884 1450.10935,259.175781 1455.38281,259.175781 C1466.19016,259.175781 1471.59375,256.050813 1471.59375,249.800781 C1471.59375,247.45702 1470.87761,245.552742 1469.44531,244.087891 C1468.01301,242.62304 1465.53908,240.9629 1462.02344,239.107422 C1458.50779,237.251944 1453.82034,235.087252 1447.96094,232.613281 C1439.56246,229.097639 1433.3939,225.842463 1429.45508,222.847656 C1425.51626,219.85285 1422.6517,216.418639 1420.86133,212.544922 C1419.07095,208.671205 1418.17578,203.902372 1418.17578,198.238281 C1418.17578,188.537712 1421.93551,181.034532 1429.45508,175.728516 C1436.97465,170.4225 1447.63535,167.769531 1461.4375,167.769531 C1474.58861,167.769531 1487.38145,170.634086 1499.81641,176.363281 L1490.83203,197.847656 C1485.36325,195.503895 1480.25263,193.583341 1475.5,192.085938 C1470.74737,190.588534 1465.89716,189.839844 1460.94922,189.839844 C1452.16011,189.839844 1447.76562,192.216122 1447.76562,196.96875 C1447.76562,199.638034 1449.18163,201.949209 1452.01367,203.902344 C1454.84572,205.855479 1461.04683,208.752585 1470.61719,212.59375 C1479.14588,216.044288 1485.39581,219.266912 1489.36719,222.261719 C1493.33856,225.256525 1496.26822,228.707012 1498.15625,232.613281 C1500.04428,236.519551 1500.98828,241.174452 1500.98828,246.578125 Z" id="makers" fill="#4990E2" sketch:type="MSShapeGroup"></path>
        <path d="M432.960938,280.953125 C398.976393,280.953125 381.984375,262.300968 381.984375,224.996094 C381.984375,206.441313 386.606725,192.265023 395.851562,182.466797 C405.0964,172.668571 418.344966,167.769531 435.597656,167.769531 C448.227928,167.769531 459.555939,170.243465 469.582031,175.191406 L460.792969,198.238281 C456.105445,196.350251 451.74351,194.804042 447.707031,193.599609 C443.670553,192.395176 439.634135,191.792969 435.597656,191.792969 C420.102787,191.792969 412.355469,202.795463 412.355469,224.800781 C412.355469,246.155055 420.102787,256.832031 435.597656,256.832031 C441.326852,256.832031 446.632788,256.067065 451.515625,254.537109 C456.398462,253.007154 461.281226,250.6146 466.164062,247.359375 L466.164062,272.847656 C461.34633,275.907567 456.479842,278.023432 451.564453,279.195312 C446.649064,280.367193 440.447954,280.953125 432.960938,280.953125 Z M485.1875,141.597656 C485.1875,131.897087 490.591092,127.046875 501.398438,127.046875 C512.205783,127.046875 517.609375,131.897087 517.609375,141.597656 C517.609375,146.220075 516.258477,149.817044 513.556641,152.388672 C510.854804,154.960299 506.80211,156.246094 501.398438,156.246094 C490.591092,156.246094 485.1875,151.36333 485.1875,141.597656 Z M516.242188,279 L486.457031,279 L486.457031,169.820312 L516.242188,169.820312 L516.242188,279 Z M568.46875,279 L526.867188,169.820312 L558.019531,169.820312 L579.113281,232.027344 C581.457043,239.904987 582.921872,247.35934 583.507812,254.390625 L584.09375,254.390625 C584.419272,248.140594 585.884102,240.686241 588.488281,232.027344 L609.484375,169.820312 L640.636719,169.820312 L599.035156,279 L568.46875,279 Z M649.992188,141.597656 C649.992188,131.897087 655.395779,127.046875 666.203125,127.046875 C677.010471,127.046875 682.414062,131.897087 682.414062,141.597656 C682.414062,146.220075 681.063165,149.817044 678.361328,152.388672 C675.659492,154.960299 671.606798,156.246094 666.203125,156.246094 C655.395779,156.246094 649.992188,151.36333 649.992188,141.597656 Z M681.046875,279 L651.261719,279 L651.261719,169.820312 L681.046875,169.820312 L681.046875,279 Z M751.632812,280.953125 C717.648268,280.953125 700.65625,262.300968 700.65625,224.996094 C700.65625,206.441313 705.2786,192.265023 714.523438,182.466797 C723.768275,172.668571 737.016841,167.769531 754.269531,167.769531 C766.899803,167.769531 778.227814,170.243465 788.253906,175.191406 L779.464844,198.238281 C774.77732,196.350251 770.415385,194.804042 766.378906,193.599609 C762.342428,192.395176 758.30601,191.792969 754.269531,191.792969 C738.774662,191.792969 731.027344,202.795463 731.027344,224.800781 C731.027344,246.155055 738.774662,256.832031 754.269531,256.832031 C759.998727,256.832031 765.304663,256.067065 770.1875,254.537109 C775.070337,253.007154 779.953101,250.6146 784.835938,247.359375 L784.835938,272.847656 C780.018205,275.907567 775.151717,278.023432 770.236328,279.195312 C765.320939,280.367193 759.119829,280.953125 751.632812,280.953125 Z" id="Text" fill="#F6A623" sketch:type="MSShapeGroup"></path>
    </g>
</svg>