<?xml version="1.0" encoding="UTF-8" standalone="no"?>
<svg width="1502px" height="387px" viewBox="0 0 1502 387" version="1.1" xmlns="http://www.w3.org/2000/svg" xmlns:xlink="http://www.w3.org/1999/xlink" xmlns:sketch="http://www.bohemiancoding.com/sketch/ns">
    <title>civicmakers</title>
    <description>Created with Sketch (http://www.bohemiancoding.com/sketch)</description>
    <defs></defs>
    <g id="Page-1" stroke="none" stroke-width="1" fill="none" fill-rule="evenodd" sketch:type="MSPage">
        <g id="makers-+-Text" sketch:type="MSLayerGroup" transform="translate(373.000000, 65.000000)" font-weight="bold" font-family="Open Sans" letter-spacing="-5" font-size="200">
            <text id="makers" fill="#4990E2" sketch:type="MSTextLayer">
                <tspan x="415" y="214" fill="#000000">makers</tspan>
            </text>
            <text id="Text" fill="#F6A623" sketch:type="MSTextLayer">
                <tspan x="0" y="214" fill="#000000">civic</tspan>
            </text>
        </g>
        <g id="Group-+-path3-+-path3" sketch:type="MSLayerGroup">
            <g id="Group" fill="#F6A623" sketch:type="MSShapeGroup">
                <path d="M339.555198,349 L44.4448023,349 C35.3994536,349 28,343.15106 28,336.002355 C28,328.84894 35.3994536,323 44.4448023,323 L339.555198,323 C348.600546,323 356,328.84894 356,336.002355 C356,343.15106 348.600546,349 339.555198,349 Z" id="Shape"></path>
                <path d="M389,374 C389,381.15 381.603541,387 372.561853,387 L16.4381468,387 C7.40117308,387 0,381.15 0,374 C0,366.85 7.39645895,361 16.4381468,361 L372.561853,361 C381.603541,361 389,366.85 389,374 L389,374 Z" id="Shape"></path>
                <path d="M367,116.33705 C367,124.952392 360.057745,132 351.576962,132 L34.4183189,132 C25.9375356,132 19,124.952392 19,116.33705 L19,104.66295 C19,96.0476084 25.9375356,89 34.4183189,89 L351.576962,89 C360.057745,89 367,96.0476084 367,104.66295 L367,116.33705 L367,116.33705 Z" id="Shape"></path>
                <path d="M87.2540807,76 C78.7706374,76 77.5479264,72.0764165 84.5395677,67.2767388 L177.295657,3.59975829 C184.282577,-1.19991943 195.721299,-1.19991943 202.70822,3.59975829 L295.464309,67.2767388 C302.451229,72.0764165 301.228518,76 292.745075,76 L87.2540807,76 L87.2540807,76 Z" id="Shape"></path>
            </g>
            <g id="path3-+-path3" transform="translate(36.000000, 147.000000)" fill="#4990E2" sketch:type="MSShapeGroup">
                <path d="M161,81.085403 C161,79.0325679 160.98725,76.8943299 160.824681,74.8731256 L138.74408,67.971298 C137.593352,62.6320291 135.817851,57.4983599 133.353825,52.7885426 L145.524135,33.4684864 C143.142987,30.1757263 140.538707,27.044283 137.698543,24.1532334 L116.48816,32.7789363 C112.175319,29.4418932 107.540528,26.5951265 102.405282,24.4980084 L99.2750455,2.24261949 C95.3638434,1.25574039 91.3888889,0.408036551 87.2800546,0 L76.5027322,20.0096064 C70.8606557,20.2341846 65.4640255,21.3033037 60.3319672,22.941776 L43.4663024,7.75902062 C39.7814208,9.51452671 36.147541,11.5294049 32.8611111,13.797329 L37.5564663,36.0527179 C33.5560109,39.6997423 30.1962659,43.8844892 27.298725,48.4741097 L4.17577413,47.6169166 C2.51183971,51.2734302 1.10928962,55.0786082 0.00318761384,59.0039831 L18.2586521,73.1524133 C17.920765,75.6512418 17.7358834,78.1627226 17.7358834,80.7406279 C17.7358834,83.5431115 18.102459,86.1558107 18.4307832,88.8475867 L0,103.166823 C1.04553734,107.092198 2.45765027,110.704428 4.17258652,114.383083 L27.4708561,113.522727 C30.352459,117.900422 33.753643,121.930178 37.5564663,125.425375 L32.68898,148.373477 C36.048725,150.641401 39.4084699,152.672095 43.1188525,154.408622 L60.6794171,138.710286 C65.7094718,140.177952 70.8606557,141.047798 76.1520947,141.29768 L87.2800546,162 C91.379326,161.604616 95.3638434,160.877109 99.2750455,159.93135 L102.405282,136.812441 C107.256831,134.810216 111.837432,132.105787 115.965392,129.047095 L137.698543,137.843604 C140.538707,134.971532 143.146175,131.8306 145.524135,128.528351 L133.178506,108.860356 C135.617031,104.261246 137.382969,99.4375586 138.568761,94.1963449 L160.821494,87.1237113 C160.974499,85.1056701 161,83.1382381 161,81.085403 L161,81.085403 L161,81.085403 Z M108,81.0016014 C108,97.0253465 95.0221437,110 79.0016014,110 C62.9778563,110 50,97.0253465 50,81.0016014 C50,64.9778563 62.9778563,52 79.0016014,52 C95.0253465,52 108,64.9778563 108,81.0016014 L108,81.0016014 L108,81.0016014 Z" id="path3"></path>
                <path d="M318,81.085403 C318,79.0325679 317.98725,76.8943299 317.824681,74.8731256 L295.74408,67.971298 C294.593352,62.6320291 292.817851,57.4983599 290.353825,52.7885426 L302.524135,33.4684864 C300.142987,30.1757263 297.538707,27.044283 294.698543,24.1532334 L273.48816,32.7789363 C269.175319,29.4418932 264.540528,26.5951265 259.405282,24.4980084 L256.275046,2.24261949 C252.363843,1.25574039 248.388889,0.408036551 244.280055,0 L233.502732,20.0096064 C227.860656,20.2341846 222.464026,21.3033037 217.331967,22.941776 L200.466302,7.75902062 C196.781421,9.51452671 193.147541,11.5294049 189.861111,13.797329 L194.556466,36.0527179 C190.556011,39.6997423 187.196266,43.8844892 184.298725,48.4741097 L161.175774,47.6169166 C159.51184,51.2734302 158.10929,55.0786082 157.003188,59.0039831 L175.258652,73.1524133 C174.920765,75.6512418 174.735883,78.1627226 174.735883,80.7406279 C174.735883,83.5431115 175.102459,86.1558107 175.430783,88.8475867 L157,103.166823 C158.045537,107.092198 159.45765,110.704428 161.172587,114.383083 L184.470856,113.522727 C187.352459,117.900422 190.753643,121.930178 194.556466,125.425375 L189.68898,148.373477 C193.048725,150.641401 196.40847,152.672095 200.118852,154.408622 L217.679417,138.710286 C222.709472,140.177952 227.860656,141.047798 233.152095,141.29768 L244.280055,162 C248.379326,161.604616 252.363843,160.877109 256.275046,159.93135 L259.405282,136.812441 C264.256831,134.810216 268.837432,132.105787 272.965392,129.047095 L294.698543,137.843604 C297.538707,134.971532 300.146175,131.8306 302.524135,128.528351 L290.178506,108.860356 C292.617031,104.261246 294.382969,99.4375586 295.568761,94.1963449 L317.821494,87.1237113 C317.974499,85.1056701 318,83.1382381 318,81.085403 L318,81.085403 L318,81.085403 Z M265,81.0016014 C265,97.0253465 252.022144,110 236.001601,110 C219.977856,110 207,97.0253465 207,81.0016014 C207,64.9778563 219.977856,52 236.001601,52 C252.025347,52 265,64.9778563 265,81.0016014 L265,81.0016014 L265,81.0016014 Z" id="path3"></path>
            </g>
        </g>
    </g>
</svg>